<?xml version="1.0" encoding="UTF-8"?>
<svg viewBox="0 0 400.31 404.46" xmlns="http://www.w3.org/2000/svg" xmlns:xlink="http://www.w3.org/1999/xlink" width="25" height="25">
<defs>
<style>.cls-1{isolation:isolate;}.cls-2,.cls-5{mix-blend-mode:multiply;}.cls-3{fill:url(#d);}.cls-4{fill:url(#a);}.cls-5{fill:url(#c);}.cls-6{fill:url(#b);}.cls-7{fill:#72c3b4;}</style>
<linearGradient id="d" x2="224.01" y1="112" y2="112" gradientUnits="userSpaceOnUse">
<stop stop-color="#65aa9d" offset="0"/>
<stop stop-color="#72c3b4" offset="1"/>
</linearGradient>
<linearGradient id="a" x1="47.7" x2="224.01" y1="135.85" y2="135.85" gradientUnits="userSpaceOnUse">
<stop stop-color="#72c3b4" offset="0"/>
<stop stop-color="#fff" offset="1"/>
</linearGradient>
<linearGradient id="c" x1="224.01" x2="400.31" y1="135.85" y2="135.85" xlink:href="#a"/>
<linearGradient id="b" x1="224.01" x2="400.31" y1="135.85" y2="135.85" gradientUnits="userSpaceOnUse">
<stop stop-color="#72c3b4" offset="0"/>
<stop stop-color="#8bcab5" offset="1"/>
</linearGradient>
</defs>
<title>Fichier 1</title>
<g class="cls-1">
<g data-name="Calque 2">
<g data-name="Calque 1">
<g class="cls-2">
<path class="cls-3" d="M224,224C105.79,224,13.86,149.89,0,0,78.39,62.08,216.73,27.1,224,224Z"/>
</g>
<g class="cls-2">
<path class="cls-4" d="M224,224C131,224,58.61,165.67,47.7,47.7,109.4,96.56,218.28,69,224,224Z"/>
</g>
<path class="cls-5" d="M224,224c93,0,165.39-58.34,176.3-176.31C338.61,96.56,229.73,69,224,224Z"/>
<g class="cls-2">
<path class="cls-6" d="M224,224c93,0,165.39-58.34,176.3-176.31C338.61,96.56,229.73,69,224,224Z"/>
</g>
<path class="cls-7" d="m231.3 224.48c-5.08 29.18-1.5 59.2 4.86 88.89 3 14.89 6.66 29.79 9 45 2.12 15 4 31.29-5.54 46.1l-5.36-2.18c7.71-13 5.62-28.48 2.74-43.09-3-14.79-7.32-29.54-11.08-44.45-7.79-29.71-13.12-60.53-9.22-91.62z"/>
<g class="cls-2">
<path class="cls-4" d="M224,224C131,224,58.61,165.67,47.7,47.7,109.4,96.56,218.28,69,224,224Z"/>
</g>
</g>
</g>
</g>
</svg>
